# xmcd CD database file
#
# Track frame offsets:
#	150
#	13476
#	28428
#	42863
#	56361
#	67190
#	81394
#	95501
#	109400
#	123963
#	140712
#	155399
#	169409
#	182221
#	196044
#	208843
#	223495
#	237634
#	251686
#	263603
#
# Disc length: 3719 seconds
#
# Revision: 0
# Processed by: cddbd v1.5.2PL0 Copyright (c) Steve Scherf et al.
# Submitted via: CDex 1.70beta2
#
DISCID=3f0e8514
DTITLE=Various Artist - Cafe Jazz 2 - CD 2
DYEAR=2010
DGENRE=Jazz
TTITLE0=Dave Brubeck - S'wonderful
TTITLE1=Oscar Peterson - What's New
TTITLE2=Billie Holiday - Easy Living
TTITLE3=Duke Ellington - The Mood To Be Wooed
TTITLE4=Erroll Garner - Play Piano Play
TTITLE5=Billy Eckstine - Skylark
TTITLE6=Coleman Hawkins and His orchestra - April In Paris
TTITLE7=Don Byas - These Foolish Things
TTITLE8=Lena Horne - Somebody Loves Me
TTITLE9=Stan Getz - The Nearness Of You
TTITLE10=Miles Davis - My Old Flame
TTITLE11=Nat King Cole - 'Tis Autumn
TTITLE12=Billy May and His Orchestra - Easy Street
TTITLE13=Wardell Gray and Art Farmer - April Skies
TTITLE14=Ella Fitzgerald - Love Is The Thing, So They Say
TTITLE15=Artie Shaw and His Orchestra - Begin The Beguine
TTITLE16=Django Reinhardt - Insensiblement
TTITLE17=Mel Torme and The Mel Tones - Guilty
TTITLE18=Art Tatum - Sweet lorraine
TTITLE19=Lester Young - On The Sunny Side Of The Street
EXTD=YEAR: 2010
EXTT0=
EXTT1=
EXTT2=
EXTT3=
EXTT4=
EXTT5=
EXTT6=
EXTT7=
EXTT8=
EXTT9=
EXTT10=
EXTT11=
EXTT12=
EXTT13=
EXTT14=
EXTT15=
EXTT16=
EXTT17=
EXTT18=
EXTT19=
PLAYORDER=
